<?xml version="1.0" encoding="UTF-8"?>
<!-- Converted by misc2svg (http://www.network-science.de/tools/misc2svg/) -->
<svg xmlns="http://www.w3.org/2000/svg" xmlns:xlink="http://www.w3.org/1999/xlink" width="398px" height="364px" viewBox="0 0 398 364" version="1.1">
<defs>
<clipPath id="clip1">
  <path d="M 0 363.75 L 397.5 363.75 L 397.5 0 L 0 0 L 0 363.75 Z M 0 363.75 "/>
</clipPath>
</defs>
<g id="misc2svg">
<g clip-path="url(#clip1)" clip-rule="nonzero">
<path style=" stroke:none;fill-rule: nonzero; fill: rgb(0%,0%,0%); fill-opacity: 1;" d="M 5.949219 77.9375 L 5.949219 56.453125 L 8.800781 56.453125 L 8.800781 65.28125 L 19.953125 65.28125 L 19.953125 56.453125 L 22.804688 56.453125 L 22.804688 77.9375 L 19.953125 77.9375 L 19.953125 67.820312 L 8.800781 67.820312 L 8.800781 77.9375 L 5.949219 77.9375 Z M 5.949219 77.9375 "/>
<path style=" stroke:none;fill-rule: nonzero; fill: rgb(0%,0%,0%); fill-opacity: 1;" d="M 26.210938 80.035156 L 28.203125 79.78125 C 28.425781 80.90625 28.808594 81.710938 29.355469 82.203125 C 29.902344 82.703125 30.566406 82.945312 31.347656 82.945312 C 32.285156 82.945312 33.074219 82.628906 33.710938 81.988281 C 34.347656 81.339844 34.667969 80.539062 34.667969 79.585938 C 34.667969 78.679688 34.367188 77.925781 33.769531 77.339844 C 33.183594 76.746094 32.433594 76.441406 31.523438 76.441406 C 31.144531 76.441406 30.675781 76.519531 30.117188 76.675781 L 30.332031 74.9375 C 30.460938 74.953125 30.574219 74.957031 30.664062 74.957031 C 31.496094 74.957031 32.253906 74.738281 32.929688 74.292969 C 33.605469 73.855469 33.945312 73.175781 33.945312 72.261719 C 33.945312 71.535156 33.699219 70.933594 33.203125 70.464844 C 32.707031 69.988281 32.078125 69.742188 31.308594 69.742188 C 30.539062 69.742188 29.894531 69.988281 29.375 70.464844 C 28.867188 70.949219 28.542969 71.675781 28.398438 72.652344 L 26.425781 72.300781 C 26.660156 70.972656 27.207031 69.949219 28.066406 69.214844 C 28.925781 68.488281 29.992188 68.121094 31.269531 68.121094 C 32.140625 68.121094 32.949219 68.3125 33.691406 68.6875 C 34.433594 69.070312 35 69.582031 35.390625 70.230469 C 35.78125 70.886719 35.976562 71.574219 35.976562 72.300781 C 35.976562 73.003906 35.789062 73.644531 35.410156 74.214844 C 35.046875 74.777344 34.492188 75.226562 33.75 75.5625 C 34.699219 75.789062 35.4375 76.246094 35.957031 76.949219 C 36.492188 77.644531 36.757812 78.503906 36.757812 79.527344 C 36.757812 80.933594 36.242188 82.136719 35.214844 83.121094 C 34.199219 84.097656 32.910156 84.585938 31.347656 84.585938 C 29.929688 84.585938 28.75 84.167969 27.8125 83.316406 C 26.886719 82.472656 26.355469 81.378906 26.210938 80.035156 Z M 26.210938 80.035156 "/>
<path style=" stroke:none;fill-rule: nonzero; fill: rgb(0%,0%,0%); fill-opacity: 1;" d="M 55.488281 70.398438 L 58.339844 71.121094 C 57.738281 73.453125 56.664062 75.238281 55.117188 76.472656 C 53.5625 77.699219 51.667969 78.308594 49.433594 78.308594 C 47.128906 78.308594 45.242188 77.839844 43.789062 76.902344 C 42.34375 75.953125 41.238281 74.585938 40.488281 72.800781 C 39.730469 71.003906 39.355469 69.085938 39.355469 67.039062 C 39.355469 64.804688 39.773438 62.851562 40.625 61.179688 C 41.484375 59.515625 42.699219 58.25 44.277344 57.390625 C 45.847656 56.53125 47.585938 56.101562 49.492188 56.101562 C 51.640625 56.101562 53.441406 56.648438 54.902344 57.742188 C 56.371094 58.835938 57.390625 60.375 57.96875 62.351562 L 55.175781 63.015625 C 54.667969 61.453125 53.933594 60.316406 52.988281 59.597656 C 52.050781 58.882812 50.863281 58.523438 49.433594 58.523438 C 47.777344 58.523438 46.394531 58.921875 45.292969 59.714844 C 44.183594 60.511719 43.402344 61.570312 42.949219 62.898438 C 42.503906 64.226562 42.285156 65.601562 42.285156 67.019531 C 42.285156 68.84375 42.542969 70.4375 43.066406 71.804688 C 43.597656 73.171875 44.421875 74.195312 45.546875 74.871094 C 46.679688 75.535156 47.894531 75.867188 49.199219 75.867188 C 50.800781 75.867188 52.148438 75.414062 53.242188 74.5 C 54.34375 73.578125 55.097656 72.210938 55.488281 70.398438 Z M 55.488281 70.398438 "/>
<path style=" stroke:none;fill-rule: nonzero; fill: rgb(0%,0%,0%); fill-opacity: 1;" d="M 83.222656 102.5625 L 83.222656 81.078125 L 86.132812 81.078125 L 97.421875 97.953125 L 97.421875 81.078125 L 100.136719 81.078125 L 100.136719 102.5625 L 97.226562 102.5625 L 85.957031 85.6875 L 85.957031 102.5625 L 83.222656 102.5625 Z M 83.222656 102.5625 "/>
<path style=" stroke:none;fill-rule: nonzero; fill: rgb(0%,0%,0%); fill-opacity: 1;" d="M 83.339844 127.644531 L 83.339844 106.160156 L 86.191406 106.160156 L 86.191406 114.988281 L 97.34375 114.988281 L 97.34375 106.160156 L 100.195312 106.160156 L 100.195312 127.644531 L 97.34375 127.644531 L 97.34375 117.527344 L 86.191406 117.527344 L 86.191406 127.644531 L 83.339844 127.644531 Z M 83.339844 127.644531 "/>
<path style=" stroke:none;fill-rule: nonzero; fill: rgb(0%,0%,0%); fill-opacity: 1;" d="M 79.375 83.4375 L 78.3125 85.25 L 59.9375 74.6875 L 61 72.8125 L 79.375 83.4375 Z M 79.375 83.4375 "/>
<path style=" stroke:none;fill-rule: nonzero; fill: rgb(0%,0%,0%); fill-opacity: 1;" d="M 134.6875 65.75 L 134.6875 68.1875 L 105 85.375 L 103.9375 83.5 L 134.6875 65.75 Z M 134.6875 65.75 "/>
<path style=" stroke:none;fill-rule: nonzero; fill: rgb(0%,0%,0%); fill-opacity: 1;" d="M 167.445312 92.28125 C 167.445312 88.726562 168.402344 85.945312 170.316406 83.921875 C 172.230469 81.90625 174.703125 80.894531 177.738281 80.894531 C 179.714844 80.894531 181.5 81.375 183.089844 82.320312 C 184.691406 83.257812 185.90625 84.582031 186.742188 86.285156 C 187.570312 87.980469 187.992188 89.898438 187.992188 92.046875 C 187.992188 94.226562 187.546875 96.167969 186.664062 97.886719 C 185.789062 99.605469 184.546875 100.910156 182.933594 101.792969 C 181.316406 102.679688 179.578125 103.121094 177.71875 103.121094 C 175.695312 103.121094 173.890625 102.632812 172.289062 101.65625 C 170.695312 100.679688 169.496094 99.347656 168.675781 97.652344 C 167.855469 95.960938 167.445312 94.171875 167.445312 92.28125 Z M 170.375 92.339844 C 170.375 94.917969 171.070312 96.960938 172.464844 98.453125 C 173.855469 99.9375 175.601562 100.679688 177.699219 100.679688 C 179.847656 100.679688 181.609375 99.933594 182.992188 98.433594 C 184.367188 96.925781 185.0625 94.789062 185.0625 92.027344 C 185.0625 90.285156 184.757812 88.761719 184.164062 87.457031 C 183.578125 86.144531 182.710938 85.128906 181.566406 84.410156 C 180.433594 83.695312 179.164062 83.335938 177.757812 83.335938 C 175.734375 83.335938 174 84.03125 172.542969 85.40625 C 171.097656 86.789062 170.375 89.097656 170.375 92.339844 Z M 170.375 92.339844 "/>
<path style=" stroke:none;fill-rule: nonzero; fill: rgb(0%,0%,0%); fill-opacity: 1;" d="M 166.5625 84.125 L 165.5 86 L 134.6875 68.1875 L 134.6875 65.75 L 166.5625 84.125 Z M 166.5625 84.125 "/>
<path style=" stroke:none;fill-rule: nonzero; fill: rgb(0%,0%,0%); fill-opacity: 1;" d="M 212.097656 77.75 L 212.097656 56.265625 L 215.007812 56.265625 L 226.296875 73.140625 L 226.296875 56.265625 L 229.011719 56.265625 L 229.011719 77.75 L 226.101562 77.75 L 214.832031 60.875 L 214.832031 77.75 L 212.097656 77.75 Z M 212.097656 77.75 "/>
<path style=" stroke:none;fill-rule: nonzero; fill: rgb(0%,0%,0%); fill-opacity: 1;" d="M 207.1875 73.5 L 208.25 75.3125 L 189.875 86 L 188.8125 84.125 L 207.1875 73.5 Z M 207.1875 73.5 "/>
<path style=" stroke:none;fill-rule: nonzero; fill: rgb(0%,0%,0%); fill-opacity: 1;" d="M 263.5625 90.5625 L 263.5625 91.8125 L 262.5 92.375 L 232.8125 75.25 L 233.875 73.4375 L 263.5625 90.5625 Z M 263.5625 90.5625 "/>
<path style=" stroke:none;fill-rule: nonzero; fill: rgb(0%,0%,0%); fill-opacity: 1;" d="M 256.6875 95.1875 L 255.625 97 L 229.125 81.6875 L 230.1875 79.875 L 256.6875 95.1875 Z M 256.6875 95.1875 "/>
<path style=" stroke:none;fill-rule: nonzero; fill: rgb(0%,0%,0%); fill-opacity: 1;" d="M 298.035156 71.042969 L 300.710938 70.808594 C 300.835938 71.878906 301.132812 72.757812 301.589844 73.445312 C 302.058594 74.140625 302.78125 74.695312 303.757812 75.125 C 304.734375 75.546875 305.832031 75.75 307.058594 75.75 C 308.136719 75.75 309.09375 75.59375 309.929688 75.28125 C 310.757812 74.960938 311.378906 74.515625 311.785156 73.953125 C 312.1875 73.382812 312.390625 72.761719 312.390625 72.097656 C 312.390625 71.433594 312.195312 70.847656 311.804688 70.339844 C 311.414062 69.832031 310.769531 69.414062 309.871094 69.070312 C 309.296875 68.851562 308.019531 68.503906 306.042969 68.035156 C 304.074219 67.554688 302.695312 67.109375 301.902344 66.6875 C 300.871094 66.15625 300.105469 65.492188 299.597656 64.695312 C 299.101562 63.890625 298.855469 62.996094 298.855469 62.019531 C 298.855469 60.925781 299.15625 59.910156 299.773438 58.972656 C 300.398438 58.035156 301.296875 57.328125 302.46875 56.84375 C 303.648438 56.351562 304.96875 56.101562 306.414062 56.101562 C 308 56.101562 309.402344 56.355469 310.613281 56.863281 C 311.835938 57.371094 312.773438 58.128906 313.425781 59.128906 C 314.089844 60.121094 314.441406 61.25 314.480469 62.507812 L 311.765625 62.722656 C 311.617188 61.355469 311.125 60.328125 310.28125 59.636719 C 309.429688 58.949219 308.179688 58.601562 306.53125 58.601562 C 304.8125 58.601562 303.554688 58.921875 302.761719 59.558594 C 301.980469 60.183594 301.589844 60.941406 301.589844 61.824219 C 301.589844 62.59375 301.867188 63.226562 302.429688 63.71875 C 302.976562 64.226562 304.402344 64.742188 306.707031 65.261719 C 309.023438 65.785156 310.613281 66.238281 311.472656 66.628906 C 312.722656 67.203125 313.640625 67.933594 314.226562 68.816406 C 314.820312 69.703125 315.125 70.71875 315.125 71.863281 C 315.125 73.011719 314.796875 74.089844 314.148438 75.105469 C 313.492188 76.109375 312.554688 76.898438 311.335938 77.46875 C 310.109375 78.023438 308.726562 78.308594 307.195312 78.308594 C 305.25 78.308594 303.625 78.023438 302.3125 77.46875 C 300.992188 76.898438 299.960938 76.042969 299.207031 74.910156 C 298.464844 73.765625 298.074219 72.476562 298.035156 71.042969 Z M 298.035156 71.042969 "/>
<path style=" stroke:none;fill-rule: nonzero; fill: rgb(0%,0%,0%); fill-opacity: 1;" d="M 294.5625 72.6875 L 295.625 74.5 L 264.625 92.375 L 263.5625 91.8125 L 263.5625 90.5625 L 294.5625 72.6875 Z M 294.5625 72.6875 "/>
<path style=" stroke:none;fill-rule: nonzero; fill: rgb(0%,0%,0%); fill-opacity: 1;" d="M 356.136719 95.210938 L 358.988281 95.933594 C 358.386719 98.265625 357.3125 100.050781 355.765625 101.285156 C 354.210938 102.511719 352.320312 103.121094 350.082031 103.121094 C 347.777344 103.121094 345.890625 102.652344 344.4375 101.714844 C 342.992188 100.765625 341.890625 99.398438 341.136719 97.613281 C 340.378906 95.816406 340.003906 93.898438 340.003906 91.851562 C 340.003906 89.617188 340.421875 87.664062 341.273438 85.992188 C 342.132812 84.328125 343.347656 83.0625 344.925781 82.203125 C 346.5 81.34375 348.234375 80.914062 350.140625 80.914062 C 352.289062 80.914062 354.089844 81.460938 355.550781 82.554688 C 357.019531 83.648438 358.039062 85.1875 358.617188 87.164062 L 355.824219 87.828125 C 355.316406 86.265625 354.585938 85.128906 353.636719 84.410156 C 352.699219 83.695312 351.511719 83.335938 350.082031 83.335938 C 348.425781 83.335938 347.046875 83.734375 345.941406 84.527344 C 344.832031 85.324219 344.050781 86.382812 343.597656 87.710938 C 343.152344 89.039062 342.933594 90.414062 342.933594 91.832031 C 342.933594 93.65625 343.191406 95.25 343.714844 96.617188 C 344.246094 97.984375 345.070312 99.007812 346.195312 99.683594 C 347.328125 100.347656 348.542969 100.679688 349.847656 100.679688 C 351.449219 100.679688 352.796875 100.226562 353.890625 99.3125 C 354.992188 98.390625 355.746094 97.023438 356.136719 95.210938 Z M 356.136719 95.210938 "/>
<path style=" stroke:none;fill-rule: nonzero; fill: rgb(0%,0%,0%); fill-opacity: 1;" d="M 362.5625 102.75 L 362.5625 81.265625 L 365.414062 81.265625 L 365.414062 90.09375 L 376.566406 90.09375 L 376.566406 81.265625 L 379.417969 81.265625 L 379.417969 102.75 L 376.566406 102.75 L 376.566406 92.632812 L 365.414062 92.632812 L 365.414062 102.75 L 362.5625 102.75 Z M 362.5625 102.75 "/>
<path style=" stroke:none;fill-rule: nonzero; fill: rgb(0%,0%,0%); fill-opacity: 1;" d="M 382.832031 104.847656 L 384.824219 104.59375 C 385.042969 105.71875 385.429688 106.523438 385.976562 107.015625 C 386.523438 107.515625 387.1875 107.757812 387.96875 107.757812 C 388.90625 107.757812 389.691406 107.441406 390.332031 106.800781 C 390.964844 106.152344 391.289062 105.351562 391.289062 104.398438 C 391.289062 103.492188 390.984375 102.738281 390.390625 102.152344 C 389.804688 101.558594 389.050781 101.253906 388.144531 101.253906 C 387.761719 101.253906 387.292969 101.332031 386.738281 101.488281 L 386.953125 99.75 C 387.078125 99.765625 387.191406 99.769531 387.285156 99.769531 C 388.113281 99.769531 388.871094 99.550781 389.550781 99.105469 C 390.222656 98.667969 390.566406 97.988281 390.566406 97.074219 C 390.566406 96.347656 390.316406 95.746094 389.824219 95.277344 C 389.324219 94.800781 388.695312 94.554688 387.929688 94.554688 C 387.15625 94.554688 386.511719 94.800781 385.996094 95.277344 C 385.488281 95.761719 385.160156 96.488281 385.019531 97.464844 L 383.046875 97.113281 C 383.28125 95.785156 383.828125 94.761719 384.6875 94.027344 C 385.546875 93.300781 386.609375 92.933594 387.890625 92.933594 C 388.757812 92.933594 389.570312 93.125 390.3125 93.5 C 391.054688 93.882812 391.621094 94.394531 392.011719 95.042969 C 392.402344 95.699219 392.597656 96.386719 392.597656 97.113281 C 392.597656 97.816406 392.40625 98.457031 392.03125 99.027344 C 391.664062 99.589844 391.113281 100.039062 390.371094 100.375 C 391.316406 100.601562 392.054688 101.058594 392.578125 101.761719 C 393.109375 102.457031 393.378906 103.316406 393.378906 104.339844 C 393.378906 105.746094 392.859375 106.949219 391.835938 107.933594 C 390.820312 108.910156 389.53125 109.398438 387.96875 109.398438 C 386.546875 109.398438 385.371094 108.980469 384.433594 108.128906 C 383.503906 107.285156 382.972656 106.191406 382.832031 104.847656 Z M 382.832031 104.847656 "/>
<path style=" stroke:none;fill-rule: nonzero; fill: rgb(0%,0%,0%); fill-opacity: 1;" d="M 338.875 84.4375 L 337.8125 86.25 L 317.6875 74.625 L 318.75 72.8125 L 338.875 84.4375 Z M 338.875 84.4375 "/>
<path style=" stroke:none;fill-rule: nonzero; fill: rgb(0%,0%,0%); fill-opacity: 1;" d="M 124.445312 17.84375 C 124.445312 14.289062 125.402344 11.507812 127.316406 9.484375 C 129.230469 7.46875 131.703125 6.457031 134.738281 6.457031 C 136.714844 6.457031 138.5 6.9375 140.089844 7.882812 C 141.691406 8.820312 142.90625 10.144531 143.742188 11.847656 C 144.570312 13.542969 144.992188 15.460938 144.992188 17.609375 C 144.992188 19.789062 144.546875 21.730469 143.664062 23.449219 C 142.789062 25.167969 141.546875 26.472656 139.933594 27.355469 C 138.316406 28.242188 136.578125 28.683594 134.71875 28.683594 C 132.695312 28.683594 130.890625 28.195312 129.289062 27.21875 C 127.695312 26.242188 126.496094 24.910156 125.675781 23.214844 C 124.855469 21.523438 124.445312 19.734375 124.445312 17.84375 Z M 127.375 17.902344 C 127.375 20.480469 128.070312 22.523438 129.464844 24.015625 C 130.855469 25.5 132.601562 26.242188 134.699219 26.242188 C 136.847656 26.242188 138.609375 25.496094 139.992188 23.996094 C 141.367188 22.488281 142.0625 20.351562 142.0625 17.589844 C 142.0625 15.847656 141.757812 14.324219 141.164062 13.019531 C 140.578125 11.707031 139.710938 10.691406 138.566406 9.972656 C 137.433594 9.257812 136.164062 8.898438 134.757812 8.898438 C 132.734375 8.898438 131 9.59375 129.542969 10.96875 C 128.097656 12.351562 127.375 14.660156 127.375 17.902344 Z M 127.375 17.902344 "/>
<path style=" stroke:none;fill-rule: nonzero; fill: rgb(0%,0%,0%); fill-opacity: 1;" d="M 129.875 69.125 L 132 69.125 L 132 31.5 L 129.875 31.5 L 129.875 69.125 Z M 129.875 69.125 "/>
<path style=" stroke:none;fill-rule: nonzero; fill: rgb(0%,0%,0%); fill-opacity: 1;" d="M 137.3125 69.125 L 139.4375 69.125 L 139.4375 31.5 L 137.3125 31.5 L 137.3125 69.125 Z M 137.3125 69.125 "/>
<path style=" stroke:none;fill-rule: nonzero; fill: rgb(0%,0%,0%); fill-opacity: 1;" d="M 270.199219 144.773438 L 273.050781 145.496094 C 272.449219 147.828125 271.375 149.613281 269.828125 150.847656 C 268.273438 152.074219 266.382812 152.683594 264.144531 152.683594 C 261.839844 152.683594 259.953125 152.214844 258.5 151.277344 C 257.054688 150.328125 255.953125 148.960938 255.199219 147.175781 C 254.441406 145.378906 254.066406 143.460938 254.066406 141.414062 C 254.066406 139.179688 254.484375 137.226562 255.335938 135.554688 C 256.195312 133.890625 257.410156 132.625 258.988281 131.765625 C 260.5625 130.90625 262.296875 130.476562 264.203125 130.476562 C 266.351562 130.476562 268.152344 131.023438 269.613281 132.117188 C 271.082031 133.210938 272.101562 134.75 272.679688 136.726562 L 269.886719 137.390625 C 269.378906 135.828125 268.648438 134.691406 267.699219 133.972656 C 266.761719 133.257812 265.574219 132.898438 264.144531 132.898438 C 262.488281 132.898438 261.109375 133.296875 260.003906 134.089844 C 258.894531 134.886719 258.113281 135.945312 257.660156 137.273438 C 257.214844 138.601562 256.996094 139.976562 256.996094 141.394531 C 256.996094 143.21875 257.253906 144.8125 257.777344 146.179688 C 258.308594 147.546875 259.132812 148.570312 260.257812 149.246094 C 261.390625 149.910156 262.605469 150.242188 263.910156 150.242188 C 265.511719 150.242188 266.859375 149.789062 267.953125 148.875 C 269.054688 147.953125 269.808594 146.585938 270.199219 144.773438 Z M 270.199219 144.773438 "/>
<path style=" stroke:none;fill-rule: nonzero; fill: rgb(0%,0%,0%); fill-opacity: 1;" d="M 276.625 152.3125 L 276.625 130.828125 L 279.476562 130.828125 L 279.476562 139.65625 L 290.628906 139.65625 L 290.628906 130.828125 L 293.480469 130.828125 L 293.480469 152.3125 L 290.628906 152.3125 L 290.628906 142.195312 L 279.476562 142.195312 L 279.476562 152.3125 L 276.625 152.3125 Z M 276.625 152.3125 "/>
<path style=" stroke:none;fill-rule: nonzero; fill: rgb(0%,0%,0%); fill-opacity: 1;" d="M 296.894531 154.410156 L 298.886719 154.15625 C 299.105469 155.28125 299.492188 156.085938 300.039062 156.578125 C 300.585938 157.078125 301.25 157.320312 302.03125 157.320312 C 302.96875 157.320312 303.753906 157.003906 304.394531 156.363281 C 305.027344 155.714844 305.351562 154.914062 305.351562 153.960938 C 305.351562 153.054688 305.046875 152.300781 304.453125 151.714844 C 303.867188 151.121094 303.113281 150.816406 302.207031 150.816406 C 301.824219 150.816406 301.355469 150.894531 300.800781 151.050781 L 301.015625 149.3125 C 301.140625 149.328125 301.253906 149.332031 301.347656 149.332031 C 302.175781 149.332031 302.933594 149.113281 303.613281 148.667969 C 304.285156 148.230469 304.628906 147.550781 304.628906 146.636719 C 304.628906 145.910156 304.378906 145.308594 303.886719 144.839844 C 303.386719 144.363281 302.757812 144.117188 301.992188 144.117188 C 301.21875 144.117188 300.574219 144.363281 300.058594 144.839844 C 299.550781 145.324219 299.222656 146.050781 299.082031 147.027344 L 297.109375 146.675781 C 297.34375 145.347656 297.890625 144.324219 298.75 143.589844 C 299.609375 142.863281 300.671875 142.496094 301.953125 142.496094 C 302.820312 142.496094 303.632812 142.6875 304.375 143.0625 C 305.117188 143.445312 305.683594 143.957031 306.074219 144.605469 C 306.464844 145.261719 306.660156 145.949219 306.660156 146.675781 C 306.660156 147.378906 306.46875 148.019531 306.09375 148.589844 C 305.726562 149.152344 305.175781 149.601562 304.433594 149.9375 C 305.378906 150.164062 306.117188 150.621094 306.640625 151.324219 C 307.171875 152.019531 307.441406 152.878906 307.441406 153.902344 C 307.441406 155.308594 306.921875 156.511719 305.898438 157.496094 C 304.882812 158.472656 303.59375 158.960938 302.03125 158.960938 C 300.609375 158.960938 299.433594 158.542969 298.496094 157.691406 C 297.566406 156.847656 297.035156 155.753906 296.894531 154.410156 Z M 296.894531 154.410156 "/>
<path style=" stroke:none;fill-rule: nonzero; fill: rgb(0%,0%,0%); fill-opacity: 1;" d="M 264.625 127.6875 L 262.5 127.6875 L 262.5 92.375 L 263.5625 91.8125 L 264.625 92.375 L 264.625 127.6875 Z M 264.625 127.6875 "/>
</g>
</g>
</svg>
